# xmcd
#
# Track frame offsets: 
#        150
#        13822
#        24952
#        40269
#        51941
#        64361
#        72536
#        82276
#        92016
#        99887
#        116052
#        125259
#
# Disc length: 1793 seconds
#
# Revision: 0
# Processed by: cddbd v1.5.2PL0 Copyright (c) Steve Scherf et al.
# Submitted via: ExactAudioCopy v1.0b4
#
DISCID=a406ff0c
DTITLE=Rolling Stones, The - Around And Around (LP)
DYEAR=1964
DGENRE=Blues
TTITLE0=Around And Around
TTITLE1=Bad Times
TTITLE2=It's All Over Now
TTITLE3=Empty Heart
TTITLE4=Confessin The Blues
TTITLE5=Not Fade Away
TTITLE6=Bye, Bye Johnny
TTITLE7=You Better Move On
TTITLE8=I Wanna Be Your Man
TTITLE9=2120 South Michigan Avenue
TTITLE10=If You Need Me
TTITLE11=Poison Ivy
EXTD=
EXTT0=
EXTT1=
EXTT2=
EXTT3=
EXTT4=
EXTT5=
EXTT6=
EXTT7=
EXTT8=
EXTT9=
EXTT10=
EXTT11=
PLAYORDER=
